HIERARCHY
ROOT Hips
{
  OFFSET 58.5597 92.8094 9.86802
  CHANNELS 6 Xposition Yposition Zposition Zrotation Xrotation Yrotation
  JOINT spine
  {
    OFFSET 0 7.4756 0.429885
    CHANNELS 3 Zrotation Xrotation Yrotation
    JOINT spine1
    {
      OFFSET 0 9.92301 0
      CHANNELS 3 Zrotation Xrotation Yrotation
      JOINT spine2
      {
        OFFSET 0 9.50804 0
        CHANNELS 3 Zrotation Xrotation Yrotation
        JOINT Neck
        {
          OFFSET 0 24.4111 1.16384
          CHANNELS 3 Zrotation Xrotation Yrotation
          JOINT Head
          {
            OFFSET 0 7.37523 0
            CHANNELS 3 Zrotation Xrotation Yrotation
            End Site
            {
              OFFSET 0 17.8522 -5.88741
            }
          }
        }
        JOINT RightShoulder
        {
          OFFSET -4.00356 10.2679 -0.557468
          CHANNELS 3 Zrotation Xrotation Yrotation
          JOINT RightArm
          {
            OFFSET 0 13.4673 0
            CHANNELS 3 Zrotation Xrotation Yrotation
            JOINT RightArmRoll
            {
              OFFSET 0 6.79858 0
              CHANNELS 3 Zrotation Xrotation Yrotation
              JOINT RightForeArm
              {
                OFFSET 0 19.8018 0
                CHANNELS 3 Zrotation Xrotation Yrotation
                JOINT RightForeArmRoll
                {
                  OFFSET 0 7.62905 0
                  CHANNELS 3 Zrotation Xrotation Yrotation
                  JOINT RightHand
                  {
                    OFFSET 0 15.3098 0
                    CHANNELS 3 Zrotation Xrotation Yrotation
                    End Site
                    {
                      OFFSET 0 0 0
                    }
                  }
                }
              }
            }
          }
        }
        JOINT LeftShoulder
        {
          OFFSET 4.00356 10.2679 -0.557468
          CHANNELS 3 Zrotation Xrotation Yrotation
          JOINT LeftArm
          {
            OFFSET 0 13.4673 0
            CHANNELS 3 Zrotation Xrotation Yrotation
            JOINT LeftArmRoll
            {
              OFFSET 0 6.79858 0
              CHANNELS 3 Zrotation Xrotation Yrotation
              JOINT LeftForeArm
              {
                OFFSET 0 19.8018 0
                CHANNELS 3 Zrotation Xrotation Yrotation
                JOINT LeftForeArmRoll
                {
                  OFFSET 0 7.62905 0
                  CHANNELS 3 Zrotation Xrotation Yrotation
                  JOINT LeftHand
                  {
                    OFFSET 0 15.3098 0
                    CHANNELS 3 Zrotation Xrotation Yrotation
                    End Site
                    {
                      OFFSET 0 0 0
                    }
                  }
                }
              }
            }
          }
        }
      }
    }
  }
  JOINT RightUpLeg
  {
    OFFSET -6.62609 -1.21505 -1.01927
    CHANNELS 3 Zrotation Xrotation Yrotation
    JOINT RightUpLegRoll
    {
      OFFSET 0 17.9517 0
      CHANNELS 3 Zrotation Xrotation Yrotation
      JOINT RightLeg
      {
        OFFSET 0 -22.2304 0
        CHANNELS 3 Zrotation Xrotation Yrotation
        JOINT RightLegRoll
        {
          OFFSET 0 22.3032 0
          CHANNELS 3 Zrotation Xrotation Yrotation
          JOINT RightFoot
          {
            OFFSET 0 18.5636 0
            CHANNELS 3 Zrotation Xrotation Yrotation
            JOINT RightToeBase
            {
              OFFSET 0 15.5183 0
              CHANNELS 3 Zrotation Xrotation Yrotation
              End Site
              {
                OFFSET 0.00657761 7.51539 -0.866263
              }
            }
          }
        }
      }
    }
  }
  JOINT LeftUpLeg
  {
    OFFSET 6.62609 -1.21505 -1.01927
    CHANNELS 3 Zrotation Xrotation Yrotation
    JOINT LeftUpLegRoll
    {
      OFFSET 0 17.9518 0
      CHANNELS 3 Zrotation Xrotation Yrotation
      JOINT LeftLeg
      {
        OFFSET 0 22.2303 0
        CHANNELS 3 Zrotation Xrotation Yrotation
        JOINT LeftLegRoll
        {
          OFFSET 0 22.5093 0
          CHANNELS 3 Zrotation Xrotation Yrotation
          JOINT LeftFoot
          {
            OFFSET 0 18.3575 0
            CHANNELS 3 Zrotation Xrotation Yrotation
            JOINT LeftToeBase
            {
              OFFSET 0 15.5183 0
              CHANNELS 3 Zrotation Xrotation Yrotation
              End Site
              {
                OFFSET -0.029478 7.51539 -0.866262
              }
            }
          }
        }
      }
    }
  }
}
MOTION
Frames: 8
Frame Time: 0.00208333
57.7723 93.0482 10.0642 -0.0474344 -6.22497 -0.91174 0.0774216 -1.27694 -0.564721 0.147398 1.44828 -1.13751 0.161155 3.09321 -1.14063 -13.3593 1.63723 0.321556 11.3094 12.6753 -2.12165 57.9711 -6.64669 -4.08333 125.136 20.8771 -45.3066 7.26309e-006 4.33109e-007 -1.1016e-006 -154.123 70.2715 136.916 1.4737e-006 6.66805e-007 -2.99999 8.02946 -4.95143 0.69767 -56.1907 -7.38441 4.48698 -104.308 84.254 26.0068 -1.85685e-005 1.67779e-006 1.55055e-006 -13.0071 62.4567 11.3801 -1.8432e-006 8.54541e-007 2.99999 -8.02934 -4.95159 -0.697717 174.72 4.43371 3.25597 180 7.01498e-015 178.727 178.347 23.678 179.402 -2.2066e-006 -3.05657e-006 0.3955 -18.3444 67.6374 19.2395 8.12861 29.4036 0.174001 177.766 -3.48216 3.3696 4.54188e-006 -4.6773e-006 -1.12977 -3.91818 -8.71895 -0.0866724 -1.11796e-006 1.71788e-006 -0.115826 20.1483 69.9135 -21.2696 -8.13649 25.2327 3.48774 
57.8232 93.04 10.0059 -0.0664046 -6.24238 -0.940288 0.0826525 -1.27402 -0.569619 0.157916 1.45407 -1.14787 0.171805 3.09899 -1.15118 -13.3132 1.60349 0.333742 11.2365 12.6843 -2.09726 58.0083 -6.66326 -4.0954 124.994 20.7676 -45.3414 7.26309e-006 4.33109e-007 -1.1016e-006 -154.059 70.1874 136.767 1.4737e-006 6.66805e-007 -2.99999 8.02946 -4.95143 0.69767 -56.0565 -7.3575 4.46401 -106.105 84.779 27.4332 -1.85685e-005 1.67779e-006 1.55055e-006 -12.8601 61.4357 11.0735 -1.8432e-006 8.54541e-007 2.99999 -8.02934 -4.95159 -0.697717 174.742 4.41605 3.24064 180 7.01498e-015 178.726 178.355 23.6675 179.401 -2.2066e-006 -3.05657e-006 0.395091 -18.3394 67.6314 19.2344 8.12822 29.3965 0.177552 177.79 -3.49809 3.349 4.54188e-006 -4.6773e-006 -1.1303 -3.9302 -8.72503 -0.088434 -1.11796e-006 1.71788e-006 -0.115795 20.1607 69.9269 -21.283 -8.13649 25.2327 3.48774 
57.785 93.0476 10.0552 -0.0828868 -6.25798 -0.967345 0.0871211 -1.27188 -0.574215 0.166944 1.45831 -1.15754 0.180957 3.10323 -1.16101 -13.2658 1.57696 0.345122 11.1646 12.6897 -2.07393 58.047 -6.67972 -4.1075 124.848 20.6637 -45.3648 7.26309e-006 4.33109e-007 -1.1016e-006 -154.004 70.106 136.631 1.4737e-006 6.66805e-007 -2.99999 8.02946 -4.95143 0.69767 -55.9248 -7.32617 4.43807 -108.301 85.2916 29.278 -1.85685e-005 1.67779e-006 1.55055e-006 -12.7086 60.4088 10.772 -1.8432e-006 8.54541e-007 2.99999 -8.02934 -4.95159 -0.697717 174.76 4.40127 3.22759 180 7.01497e-015 178.726 178.362 23.6589 179.4 -2.2066e-006 -3.05657e-006 0.394769 -18.3355 67.6267 19.2305 8.12782 29.3884 0.181322 177.809 -3.51182 3.33085 4.54188e-006 -4.6773e-006 -1.13077 -3.94142 -8.73089 -0.0900306 -1.11796e-006 1.71788e-006 -0.115749 20.1726 69.9398 -21.2959 -8.13649 25.2327 3.48774 
57.7839 93.0449 10.0511 -0.0965154 -6.27141 -0.992581 0.0907277 -1.27063 -0.578468 0.174286 1.46076 -1.16644 0.188411 3.10568 -1.17003 -13.2165 1.55849 0.355517 11.0934 12.6911 -2.05186 58.0879 -6.69621 -4.11979 124.699 20.565 -45.3763 7.26309e-006 4.33109e-007 -1.1016e-006 -153.956 70.0272 136.508 1.4737e-006 6.66805e-007 -2.99999 8.02946 -4.95143 0.69767 -55.7951 -7.28998 4.40883 -111.043 85.7882 31.6907 -1.85685e-005 1.67779e-006 1.55055e-006 -12.5517 59.377 10.4755 -1.8432e-006 8.54541e-007 2.99999 -8.02934 -4.95159 -0.697717 174.775 4.38985 3.21719 180 7.01497e-015 178.725 178.368 23.6528 179.399 -2.2066e-006 -3.05657e-006 0.394549 -18.3328 67.6236 19.2278 8.12739 29.3792 0.185337 177.825 -3.52296 3.31557 4.54188e-006 -4.6773e-006 -1.13118 -3.95166 -8.73651 -0.0914301 -1.11796e-006 1.71788e-006 -0.115688 20.1839 69.9518 -21.3081 -8.13649 25.2327 3.48774 
57.7605 93.0515 10.0643 -0.107699 -6.28343 -1.01632 0.093595 -1.27016 -0.582499 0.180211 1.46167 -1.17481 0.194441 3.10659 -1.17851 -13.1668 1.54833 0.365385 11.0247 12.6879 -2.03079 58.1295 -6.71274 -4.13213 124.547 20.473 -45.3782 7.26309e-006 4.33109e-007 -1.1016e-006 -153.914 69.952 136.394 1.4737e-006 6.66805e-007 -2.99999 8.02946 -4.95143 0.69767 -55.6702 -7.24821 4.37597 -114.534 86.2699 34.8709 -1.85685e-005 1.67779e-006 1.55055e-006 -12.3858 58.3314 10.1766 -1.8432e-006 8.54541e-007 2.99999 -8.02934 -4.95159 -0.697717 174.785 4.38098 3.20915 180 7.01497e-015 178.725 178.373 23.6488 179.398 -2.2066e-006 -3.05657e-006 0.394414 -18.3312 67.6219 19.2265 8.12694 29.369 0.189576 177.838 -3.53228 3.30258 4.54188e-006 -4.6773e-006 -1.13152 -3.96123 -8.74193 -0.0926641 -1.11796e-006 1.71788e-006 -0.11561 20.1948 69.9634 -21.3199 -8.13649 25.2327 3.48774 
57.7517 93.0523 10.0752 -0.117157 -6.29498 -1.0392 0.095928 -1.27022 -0.586444 0.185144 1.46152 -1.18296 0.199476 3.10643 -1.18674 -13.1179 1.54571 0.375264 10.9603 12.6801 -2.01032 58.1699 -6.72915 -4.1443 124.394 20.3894 -45.3729 7.26309e-006 4.33109e-007 -1.1016e-006 -153.874 69.8818 136.288 1.4737e-006 6.66805e-007 -2.99999 8.02946 -4.95143 0.69767 -55.5527 -7.20088 4.33963 -119.067 86.7357 39.1098 -1.85685e-005 1.67779e-006 1.55055e-006 -12.2103 57.2646 9.87024 -1.8432e-006 8.54541e-007 2.99999 -8.02934 -4.95159 -0.697717 174.793 4.37357 3.20283 180 7.01497e-015 178.724 178.378 23.6466 179.398 -2.2066e-006 -3.05657e-006 0.394337 -18.3307 67.6214 19.2262 8.12644 29.3578 0.193993 177.849 -3.54079 3.29095 4.54188e-006 -4.6773e-006 -1.13183 -3.9706 -8.74722 -0.0937929 -1.11796e-006 1.71788e-006 -0.11552 20.2054 69.9746 -21.3314 -8.13649 25.2327 3.48774 
57.7756 93.0494 10.0663 -0.124988 -6.30605 -1.06132 0.0977503 -1.27076 -0.590285 0.189119 1.46039 -1.19085 0.203548 3.1053 -1.1947 -13.0695 1.54989 0.385103 10.8995 12.6681 -1.9904 58.2091 -6.74533 -4.15622 124.239 20.3137 -45.3598 7.26309e-006 4.33109e-007 -1.1016e-006 -153.837 69.8161 136.191 1.4737e-006 6.66805e-007 -2.99999 8.02946 -4.95143 0.69767 -55.4417 -7.14863 4.3002 -125.087 87.1751 44.8485 -1.85685e-005 1.67779e-006 1.55055e-006 -12.0282 56.1794 9.5601 -1.8432e-006 8.54541e-007 2.99999 -8.02934 -4.95159 -0.697717 174.798 4.36759 3.1981 180 7.01497e-015 178.724 178.383 23.646 179.397 -2.2066e-006 -3.05657e-006 0.394316 -18.3311 67.622 19.2269 8.12592 29.3456 0.198576 177.857 -3.54847 3.28061 4.54188e-006 -4.6773e-006 -1.13208 -3.97976 -8.7524 -0.0948276 -1.11796e-006 1.71788e-006 -0.115418 20.2158 69.9855 -21.3426 -8.13649 25.2327 3.48774 
57.7543 93.0549 10.081 -0.131292 -6.31657 -1.08278 0.0990856 -1.27175 -0.594005 0.192171 1.45835 -1.19844 0.206693 3.10326 -1.20235 -13.0214 1.56016 0.394851 10.8421 12.6525 -1.97102 58.2472 -6.76117 -4.16785 124.083 20.2456 -45.3383 7.26309e-006 4.33109e-007 -1.1016e-006 -153.804 69.7546 136.102 1.4737e-006 6.66805e-007 -2.99999 8.02946 -4.95143 0.69767 -55.3363 -7.09208 4.25805 -133.215 87.5718 52.7081 -1.85685e-005 1.67779e-006 1.55055e-006 -11.8419 55.0785 9.24913 -1.8432e-006 8.54541e-007 2.99999 -8.02934 -4.95159 -0.697717 174.801 4.36303 3.1948 180 7.01497e-015 178.723 178.387 23.647 179.397 -2.2066e-006 -3.05657e-006 0.394347 -18.3323 67.6237 19.2285 8.12536 29.3326 0.203314 177.863 -3.5553 3.27149 4.54188e-006 -4.6773e-006 -1.13231 -3.98873 -8.75748 -0.0957791 -1.11796e-006 1.71788e-006 -0.115304 20.2259 69.996 -21.3536 -8.13649 25.2327 3.48774 
